<svg xmlns="http://www.w3.org/2000/svg" version="1.1" xmlns:xlink="http://www.w3.org/1999/xlink" xmlns:svgjs="http://svgjs.dev/svgjs" width="128" height="128" viewBox="0 0 128 128"><g transform="matrix(0.8046875,0,0,0.8046875,12.5,12.5)"><svg viewBox="0 0 225 225" data-background-color="#ffffff" preserveAspectRatio="xMidYMid meet" height="128" width="128" xmlns="http://www.w3.org/2000/svg" xmlns:xlink="http://www.w3.org/1999/xlink"><g id="tight-bounds" transform="matrix(1,0,0,1,0,0)"><svg viewBox="0 0 225 225" height="225" width="225"><g><svg></svg></g><g><svg viewBox="0 0 225 225" height="225" width="225"><g><path d="M15.072 56.25l97.428-56.25 97.428 56.25 0 112.5-97.428 56.25-97.428-56.25zM17.757 167.2l94.743 54.7 94.743-54.7v-109.4l-94.743-54.7-94.743 54.7z" fill="#000000" fill-rule="nonzero" stroke="none" stroke-width="1" stroke-linecap="butt" stroke-linejoin="miter" stroke-miterlimit="10" stroke-dasharray="" stroke-dashoffset="0" font-family="none" font-weight="none" font-size="none" text-anchor="none" style="mix-blend-mode: normal" data-fill-palette-color="tertiary"></path></g><g transform="matrix(1,0,0,1,95.31342000000001,97.61604140000426)"><svg viewBox="0 0 34.37316 29.767917199991473" height="29.767917199991473" width="34.37316"><g><svg viewBox="0 0 34.37316 29.767917199991473" height="29.767917199991473" width="34.37316"><g><svg viewBox="0 0 34.37316 29.767917199991473" height="29.767917199991473" width="34.37316"><g><svg viewBox="0 0 34.37316 29.767917199991473" height="29.767917199991473" width="34.37316"><g><svg viewBox="0 0 34.37316 29.767917199991473" height="29.767917199991473" width="34.37316"><g><svg viewBox="0 0 34.37316 29.767917199991473" height="29.767917199991473" width="34.37316"><g><svg xmlns="http://www.w3.org/2000/svg" xmlns:xlink="http://www.w3.org/1999/xlink" version="1.1" x="0" y="0" viewBox="0 0 93.814 81.245" enable-background="new 0 0 93.814 81.245" xml:space="preserve" width="34.37316" height="29.767917199991473" class="icon-icon-0" data-fill-palette-color="accent" id="icon-0"><path d="M23.453 81.245L0 40.623 23.453 0H70.36l23.454 40.623L70.36 81.245H23.453zM69.205 79.246l22.299-38.622L69.205 1.999H24.609L2.31 40.624l22.299 38.622H69.205L69.205 79.246z" fill="#000000" data-fill-palette-color="accent"></path></svg></g></svg></g></svg></g></svg></g></svg></g></svg></g></svg></g></svg></g><defs></defs></svg><rect width="225" height="225" fill="none" stroke="none" visibility="hidden"></rect></g></svg></g></svg>